<svg width="512" height="512" viewBox="0 0 512 512" xmlns="http://www.w3.org/2000/svg">
  <defs>
    <linearGradient id="documentGradient" x1="0%" y1="0%" x2="100%" y2="100%">
      <stop offset="0%" style="stop-color:#8B5CF6;stop-opacity:1" />
      <stop offset="100%" style="stop-color:#7C3AED;stop-opacity:1" />
    </linearGradient>
    <linearGradient id="linkGradient" x1="0%" y1="0%" x2="100%" y2="100%">
      <stop offset="0%" style="stop-color:#6366F1;stop-opacity:1" />
      <stop offset="100%" style="stop-color:#4F46E5;stop-opacity:1" />
    </linearGradient>
    <filter id="shadow" x="-20%" y="-20%" width="140%" height="140%">
      <feDropShadow dx="0" dy="8" stdDeviation="12" flood-color="#000000" flood-opacity="0.15"/>
    </filter>
  </defs>
  
  <!-- Background circle -->
  <circle cx="256" cy="256" r="240" fill="#ffffff" filter="url(#shadow)"/>
  
  <!-- Centered Document -->
  <path d="M180 140 L180 140 Q180 120 200 120 L320 120 L400 200 L400 360 Q400 380 380 380 L200 380 Q180 380 180 360 L180 140 Z" fill="url(#documentGradient)"/>
  
  <!-- Document corner fold -->
  <path d="M320 120 L320 200 L400 200 Z" fill="#6D28D9" opacity="0.4"/>
  
  <!-- Document lines -->
  <rect x="220" y="180" width="120" height="8" rx="4" fill="#ffffff" opacity="0.9"/>
  <rect x="220" y="200" width="100" height="8" rx="4" fill="#ffffff" opacity="0.7"/>
  <rect x="220" y="220" width="140" height="8" rx="4" fill="#ffffff" opacity="0.9"/>
  <rect x="220" y="240" width="80" height="8" rx="4" fill="#ffffff" opacity="0.7"/>
  <rect x="220" y="260" width="110" height="8" rx="4" fill="#ffffff" opacity="0.9"/>
  
  <!-- Simple link symbol in corner -->
  <g transform="translate(320, 300)">
    <path d="M10 15 A8 8 0 0 1 10 31 L2 31 A8 8 0 0 1 2 15 Z M26 15 A8 8 0 0 1 26 31 L18 31 A8 8 0 0 1 18 15 Z" 
          fill="none" stroke="url(#linkGradient)" stroke-width="4" stroke-linecap="round" opacity="0.8"/>
  </g>
</svg>
