<?xml version="1.0" encoding="UTF-8"?>
<!-- Generated by Pixelmator Pro 3.7 -->
<svg width="601" height="640" viewBox="0 0 601 640" xmlns="http://www.w3.org/2000/svg">
    <linearGradient id="linearGradient1" x1="284.804508" y1="14.406796" x2="646.569194" y2="654.90051" gradientUnits="userSpaceOnUse">
        <stop offset="0" stop-color="#68686f" stop-opacity="1"/>
        <stop offset="1" stop-color="#000000" stop-opacity="1"/>
    </linearGradient>
    <path id="Meteor-copy" fill="#e4e4e4" fill-rule="evenodd" stroke="url(#linearGradient1)" stroke-width="8" d="M 580.241638 14 L 585 14 C 585 14 489.833344 122.846863 489.833344 289.983337 L 518.383362 280.466644 C 553.229736 377.881104 526.950928 486.68631 451.484009 557.457703 C 376.01709 628.229126 265.750183 647.473816 170.771851 606.44989 C 75.793495 565.426025 14.21176 471.955017 14.000015 368.495819 C 13.962557 258.940033 82.397781 161.039612 185.300018 123.44165 L 185.300018 163.887482 C 185.300018 163.887482 273.329163 139.905487 330.429169 78.237488 L 344.704163 159.12915 C 344.704163 159.12915 457.476654 14 580.241638 14 Z M 237.641678 237.641663 C 145.663254 237.641663 71.100014 312.204865 71.100014 404.183319 C 71.100014 496.161743 145.663254 570.724976 237.641678 570.724976 C 329.620087 570.724976 404.18335 496.161743 404.18335 404.183319 C 404.18335 312.204865 329.620087 237.641663 237.641678 237.641663 Z M 242.400009 468.420837 C 231.888184 468.420837 223.366684 459.899292 223.366684 449.387482 C 223.366684 438.875671 231.888184 430.354156 242.400009 430.354156 C 252.911835 430.354156 261.43335 438.875671 261.43335 449.387482 C 261.43335 459.899292 252.911835 468.420837 242.400009 468.420837 Z M 194.816681 375.633331 C 175.10701 375.633331 159.129181 359.655487 159.129181 339.945831 C 159.129181 320.236176 175.10701 304.258331 194.816681 304.258331 C 214.526337 304.258331 230.504181 320.236176 230.504181 339.945831 C 230.504181 359.655487 214.526337 375.633331 194.816681 375.633331 Z"/>
</svg>
