<?xml version="1.0" encoding="UTF-8"?>
<!-- Generated by Pixelmator Pro 3.7 -->
<svg width="290" height="374" viewBox="0 0 290 374" xmlns="http://www.w3.org/2000/svg">
    <linearGradient id="linearGradient1" x1="16" y1="18" x2="276" y2="358" gradientUnits="userSpaceOnUse">
        <stop offset="1e-05" stop-color="#8b5cf6" stop-opacity="1"/>
        <stop offset="1" stop-color="#7c3aed" stop-opacity="1"/>
    </linearGradient>
    <filter id="filter1" x="0" y="0" width="290" height="374" filterUnits="userSpaceOnUse" primitiveUnits="userSpaceOnUse" color-interpolation-filters="sRGB">
        <feGaussianBlur stdDeviation="16"/>
        <feOffset dx="0" dy="12" result="offsetblur"/>
        <feFlood flood-color="#000000" flood-opacity="0.2"/>
        <feComposite in2="offsetblur" operator="in"/>
        <feMerge>
            <feMergeNode/>
            <feMergeNode in="SourceGraphic"/>
        </feMerge>
    </filter>
    <path id="Path" fill="url(#linearGradient1)" stroke="none" filter="url(#filter1)" d="M 16 38 L 16 38 C 16 24.666667 22.666667 18 36 18 L 176 18 L 276 118 L 276 338 C 276 351.333333 269.333333 358 256 358 L 36 358 C 22.666667 358 16 351.333333 16 338 L 16 38 Z"/>
    <path id="path1" fill="#6d28d9" stroke="none" opacity="0.4" d="M 176 18 L 176 118 L 276 118 Z"/>
    <path id="path2" fill="#ffffff" stroke="none" opacity="0.9" d="M 62 158 L 190 158 C 193.313721 158 196 160.686279 196 164 L 196 164 C 196 167.313721 193.313721 170 190 170 L 62 170 C 58.686295 170 56 167.313721 56 164 L 56 164 C 56 160.686279 58.686295 158 62 158 Z"/>
    <path id="path3" fill="#ffffff" stroke="none" opacity="0.7" d="M 62 188 L 170 188 C 173.313721 188 176 190.686279 176 194 L 176 194 C 176 197.313721 173.313721 200 170 200 L 62 200 C 58.686295 200 56 197.313721 56 194 L 56 194 C 56 190.686279 58.686295 188 62 188 Z"/>
    <path id="path4" fill="#ffffff" stroke="none" opacity="0.9" d="M 62 218 L 210 218 C 213.313721 218 216 220.686279 216 224 L 216 224 C 216 227.313721 213.313721 230 210 230 L 62 230 C 58.686295 230 56 227.313721 56 224 L 56 224 C 56 220.686279 58.686295 218 62 218 Z"/>
    <path id="path5" fill="#ffffff" stroke="none" opacity="0.7" d="M 62 248 L 150 248 C 153.313721 248 156 250.686279 156 254 L 156 254 C 156 257.313721 153.313721 260 150 260 L 62 260 C 58.686295 260 56 257.313721 56 254 L 56 254 C 56 250.686279 58.686295 248 62 248 Z"/>
    <path id="path6" fill="#ffffff" stroke="none" opacity="0.8" d="M 62 278 L 180 278 C 183.313721 278 186 280.686279 186 284 L 186 284 C 186 287.313721 183.313721 290 180 290 L 62 290 C 58.686295 290 56 287.313721 56 284 L 56 284 C 56 280.686279 58.686295 278 62 278 Z"/>
</svg>
